<?xml version="1.0" encoding="UTF-8"?>
<svg width="31px" height="29px" viewBox="0 0 31 29" version="1.1" xmlns="http://www.w3.org/2000/svg" xmlns:xlink="http://www.w3.org/1999/xlink">
    <!-- Generator: sketchtool 50.2 (55047) - http://www.bohemiancoding.com/sketch -->
    <title>A442684F-0FBB-4203-94CD-1486F517C636</title>
    <desc>Created with sketchtool.</desc>
    <defs></defs>
    <g id="Symbols" stroke="none" stroke-width="1" fill="none" fill-rule="evenodd">
        <g id="Fill-1" fill="#FFFFFF">
            <g>
                <path d="M14.8218169,28.9756755 C14.8186079,28.9756755 14.816186,28.9756755 14.8130376,28.9756755 C10.8540591,28.9734265 7.13296924,27.4643612 4.33509814,24.7264061 C1.53722705,21.988451 -0.00223779282,18.3493653 2.44155326e-06,14.4795816 C0.0023032228,10.6097388 1.54612744,6.97236939 4.34714697,4.23755102 C7.14592627,1.50492245 10.8658052,0 14.821272,0 C14.824481,0 14.8269028,0 14.8300513,0 C16.9190396,0.0011244898 18.9457251,0.423163265 20.8539204,1.25422041 C21.4856665,1.52942449 21.7695708,2.25300408 21.4881489,2.87046735 C21.206606,3.48793061 20.4665415,3.76562041 19.8346743,3.49041633 C18.2489517,2.79974286 16.5646587,2.44902041 14.8286587,2.44813265 C14.8262368,2.44813265 14.8238149,2.44813265 14.8213931,2.44813265 C11.5341216,2.44813265 8.44314307,3.69856531 6.11711377,5.96956122 C3.78932861,8.24233265 2.50640088,11.2650796 2.50452393,14.4809429 C2.50058838,21.1196939 8.02282666,26.5237551 14.8144907,26.5275429 C14.8169126,26.5275429 14.8193345,26.5275429 14.8217563,26.5275429 C18.1090884,26.5275429 21.2000063,25.2771102 23.5259751,23.0061143 C25.8536997,20.7334612 27.136688,17.7107143 27.1385649,14.4947918 L27.1385649,13.2618776 C27.1385649,12.5858816 27.699229,12.0378408 28.390856,12.0378408 C29.0824829,12.0378408 29.6430864,12.5858816 29.6430864,13.2618776 L29.6430864,14.4954429 C29.6407856,18.3659367 28.0969614,22.0033061 25.2959419,24.7381245 C22.4971626,27.4708122 18.7772837,28.9756755 14.8218169,28.9756755"></path>
                <path d="M14.8215747,18.3722102 C14.5011001,18.3722102 14.1805649,18.2527776 13.9360767,18.0137347 L9.86526807,14.0345796 C9.37623096,13.5565531 9.37623096,12.7815429 9.86526807,12.3035163 C10.3543052,11.8254898 11.1472271,11.8254898 11.6362036,12.3035163 L14.8215142,15.4171102 L28.8622739,1.69247551 C29.351311,1.21450816 30.1441724,1.21450816 30.6332095,1.69247551 C31.1222466,2.17056122 31.1222466,2.94557143 30.6332095,3.42359796 L15.7070122,18.0137347 C15.4624634,18.2527776 15.1420493,18.3722102 14.8215747,18.3722102" id="Fill-3"></path>
            </g>
        </g>
    </g>
</svg>